<svg width="858" height="175" viewBox="0 0 858 175" fill="none" xmlns="http://www.w3.org/2000/svg">
<path d="M18.8 126.502C18.8 130.402 23.6 136.602 34.4 136.602C45.5 136.602 49.2 132.902 49.2 128.002C49.2 123.102 47 120.502 38.3 119.102L25.8 117.102C9.4 114.502 0.1 107.802 0.1 94.5016C0.1 81.2016 11.8 69.6016 33.6 69.6016C56.8 69.6016 67.1 86.0016 67.1 95.3016H48.4C48.4 90.5016 42.9 85.2016 33.6 85.2016C24.3 85.2016 19.6 89.7016 19.6 94.5016C19.6 98.2016 23.2 100.702 30.5 101.802L43.7 103.802C60.1 106.302 68.6 113.802 68.6 127.902C68.6 141.002 57.5 152.002 34.3 152.002C4.7 152.002 0 131.802 0 126.302H18.8V126.502Z" fill="white"/>
<path d="M85.8984 49.3008H105.398V79.0008H106.198C107.751 77.2081 109.533 75.6279 111.498 74.3008C116.424 71.1613 122.158 69.5278 127.998 69.6008C145.898 69.6008 159.198 82.8008 159.198 103.101V150.601H139.698V104.701C139.698 94.6008 132.698 87.6008 122.598 87.6008C112.498 87.6008 105.498 94.6008 105.498 104.701V150.601H85.9984V49.3008H85.8984Z" fill="white"/>
<path d="M252.799 127.2C251.099 133.4 241.299 152.1 216.199 152.1C192.799 152.1 175.699 135 175.699 110.8C175.699 86.6 192.799 69.5 216.199 69.5C237.999 69.5 255.099 86.6 255.099 109.2C255.074 111.077 254.907 112.949 254.599 114.8L254.299 117H195.099C196.799 128.1 205.099 135.7 216.099 135.7C225.299 135.7 230.899 130.4 232.499 127.1H252.799V127.2ZM235.599 103.9C233.899 93.8 227.199 86 216.099 86C204.299 86 197.399 93.8 195.099 103.9H235.599Z" fill="white"/>
<path d="M272.398 71.2031H288.798L290.398 78.2031H291.198C292.177 76.9245 293.32 75.7812 294.598 74.8031C297.643 72.4762 301.367 71.2116 305.198 71.2031H320.798V89.9031H306.798C296.998 89.9031 291.998 94.9031 291.998 104.703V150.603H272.498V71.2031H272.398Z" fill="white"/>
<path d="M336.199 71.203H354.099L355.699 79.803H356.499C358.012 77.8142 359.876 76.1195 361.999 74.803C367.04 71.3868 373.011 69.6061 379.099 69.703C399.299 69.703 415.699 86.103 415.699 111.003C415.699 135.903 399.299 152.303 379.099 152.303C370.799 152.303 365.199 150.003 361.699 147.603C359.794 146.274 358.079 144.693 356.599 142.903H355.799V174.203H336.299V71.203H336.199ZM375.999 87.503C364.199 87.503 355.799 95.903 355.799 110.903C355.799 125.903 364.199 134.303 375.999 134.303C387.799 134.303 396.199 125.903 396.199 110.903C396.199 95.903 387.799 87.503 375.999 87.503Z" fill="white"/>
<path d="M482.2 142.802H481.4C479.821 144.644 477.966 146.229 475.9 147.502C470.769 150.676 464.833 152.307 458.8 152.202C440.7 152.202 430 141.102 430 128.102C430 112.502 440.9 101.602 462.7 101.602H480.6V100.002C480.6 91.3016 475.3 85.2016 466.6 85.2016C457.9 85.2016 453.4 90.8016 452.6 95.3016H433.1C434.8 82.2016 445.4 69.6016 466.6 69.6016C486.8 69.6016 500.1 83.0016 500.1 100.002V150.602H483.7L482.2 142.802ZM480.7 116.302H464.3C454.2 116.302 449.5 120.202 449.5 126.402C449.5 132.602 454 136.502 462 136.502C473.8 136.502 480.7 129.602 480.7 118.602V116.302V116.302Z" fill="white"/>
<path d="M572.281 152.001C565.703 152.001 560.24 150.891 555.89 148.673C551.54 146.454 548.305 143.496 546.183 139.798C544.061 136.101 543 132.086 543 127.755C543 119.726 546.077 113.545 552.23 109.214C558.383 104.882 566.764 102.716 577.373 102.716H598.697V101.766C598.697 94.8986 596.894 89.7219 593.287 86.2356C589.68 82.6436 584.853 80.8476 578.805 80.8476C573.607 80.8476 569.098 82.1682 565.279 84.8094C561.566 87.3449 559.232 91.0954 558.277 96.0607H544.591C545.122 90.3558 547.031 85.5489 550.32 81.64C553.715 77.731 557.906 74.7729 562.892 72.7657C567.878 70.6527 573.183 69.5963 578.805 69.5963C589.839 69.5963 598.114 72.5544 603.631 78.4706C609.253 84.2811 612.065 92.0462 612.065 101.766V150.099H600.13L599.334 135.995C597.106 140.432 593.817 144.236 589.468 147.405C585.224 150.469 579.495 152.001 572.281 152.001ZM574.35 140.749C579.442 140.749 583.792 139.429 587.399 136.788C591.112 134.146 593.923 130.713 595.833 126.487C597.743 122.261 598.697 117.824 598.697 113.175V113.017H578.487C570.636 113.017 565.067 114.39 561.778 117.137C558.595 119.778 557.004 123.106 557.004 127.121C557.004 131.241 558.489 134.569 561.46 137.104C564.536 139.534 568.833 140.749 574.35 140.749Z" fill="white"/>
<path d="M633.55 150.099V71.4979H646.918V150.099H633.55Z" fill="white"/>
<path d="M669.193 150.099V71.4979H681.287L682.401 86.5525C684.841 81.3759 688.554 77.2556 693.54 74.1919C698.527 71.1281 704.68 69.5963 712 69.5963V83.5416H708.34C703.672 83.5416 699.375 84.3868 695.45 86.0771C691.525 87.6618 688.395 90.4086 686.061 94.3176C683.727 98.2265 682.56 103.614 682.56 110.482V150.099H669.193Z" fill="white"/>
<path d="M633.551 62.5V49H646.918V62.5H633.551Z" fill="white"/>
<path d="M857.5 58H745.5L712 0H718C735 21 781 53 857.5 53V58Z" fill="#206EE8"/>
</svg>
